<?xml version="1.0" encoding="utf-8"?>
<!-- Generator: Adobe Illustrator 24.0.2, SVG Export Plug-In . SVG Version: 6.00 Build 0)  -->
<svg version="1.1" id="Livello_1" xmlns="http://www.w3.org/2000/svg" xmlns:xlink="http://www.w3.org/1999/xlink" x="0px" y="0px"
	 width="48px" height="48px" viewBox="0 0 48 48" style="enable-background:new 0 0 48 48;" xml:space="preserve">
<style type="text/css">
	.st0{fill:#0152E8;}
</style>
<g id="surface1">
	<path class="st0" d="M24,45.02c-11.59,0-21.02-9.48-21.02-21.14c0-5.05,1.8-9.93,5.07-13.76c3.23-3.79,7.7-6.3,12.57-7.1
		c0.38-0.06,0.75,0.04,1.04,0.29s0.45,0.61,0.45,0.98v10.57h-2.58V5.88C15.85,6.81,12.51,8.87,10,11.8
		c-2.87,3.36-4.45,7.65-4.45,12.09c0,10.23,8.27,18.55,18.44,18.55s18.44-8.32,18.44-18.55c0-4.47-1.6-8.79-4.5-12.15
		C35.06,8.4,31.1,6.2,26.79,5.54l0.39-2.55c4.93,0.75,9.44,3.25,12.72,7.05c3.31,3.84,5.13,8.75,5.13,13.84
		C45.02,35.54,35.59,45.02,24,45.02z"/>
	<path class="st0" d="M24,34.79c-5.98,0-10.84-4.89-10.84-10.9s4.87-10.9,10.84-10.9c5.98,0,10.84,4.89,10.84,10.9
		C34.84,29.89,29.98,34.79,24,34.79z M24,15.65c-4.51,0-8.18,3.7-8.18,8.23s3.67,8.23,8.18,8.23s8.18-3.69,8.18-8.23
		C32.18,19.35,28.51,15.65,24,15.65z"/>
</g>
</svg>
