<?xml version="1.0" encoding="utf-8"?>
<!-- Generator: Adobe Illustrator 26.1.0, SVG Export Plug-In . SVG Version: 6.00 Build 0)  -->
<svg version="1.1" id="colore" xmlns="http://www.w3.org/2000/svg" xmlns:xlink="http://www.w3.org/1999/xlink" x="0px" y="0px"
	 width="166px" height="36px" viewBox="0 0 166 36" style="enable-background:new 0 0 166 36;" xml:space="preserve">
<style type="text/css">
	.st0{fill:#C6C6C6;}
	.st1{fill:url(#SVGID_1_);}
	.st2{fill:url(#SVGID_00000140716233434527081440000017507375869919914646_);}
	.st3{fill:url(#SVGID_00000101790755434005128720000017963633114866645684_);}
	.st4{fill:url(#SVGID_00000000180908840436114720000007868807100289128106_);}
	.st5{fill:url(#SVGID_00000089540255367783914980000005910770280400610725_);}
	.st6{fill:url(#SVGID_00000080898363527315064040000006692910237874387361_);}
	.st7{fill:url(#SVGID_00000067197105199031898750000001865962306384017571_);}
	.st8{fill:url(#SVGID_00000108279239719681603110000016508272563437157005_);}
	.st9{fill:url(#SVGID_00000003786591243539615000000011594633284357971363_);}
	.st10{fill:url(#SVGID_00000047763340766700330610000017104057744251892400_);}
	.st11{fill:url(#SVGID_00000098900524395475460410000007467238069851030701_);}
	.st12{fill:url(#SVGID_00000101799239970873660180000005023978074202653825_);}
	.st13{fill:url(#SVGID_00000132803883625302722790000016963340046112397718_);}
	.st14{fill:url(#SVGID_00000112599312243319635640000018147433437186202541_);}
	.st15{fill:url(#SVGID_00000037650619785388708230000012044977251221810093_);}
	.st16{fill:url(#SVGID_00000124151139034506162150000011046991288947652258_);}
	.st17{fill:url(#SVGID_00000034089930822123918420000000140290810942712464_);}
	.st18{fill:url(#SVGID_00000021803920972998447090000008432182476229798040_);}
	.st19{fill:url(#SVGID_00000035527862897471514520000013861945163966507156_);}
</style>
<g>
	<g>
		<g>
			<path class="st0" d="M136,4.2V2.5l-1.4-2.4h0.9l0.9,1.6l0.9-1.6h0.9l-1.4,2.4v1.7H136z"/>
			<path class="st0" d="M141.5,4.2V0.2h2.8v0.8h-1.9v0.9h1.5v0.8h-1.5v1h2v0.8H141.5z"/>
			<path class="st0" d="M150.6,4.2l-0.3-0.9h-1.5l-0.3,0.9h-0.9l1.6-4.1h0.8l1.6,4.1H150.6z M149,2.6h1l-0.5-1.3L149,2.6z"/>
			<path class="st0" d="M157.9,4.2H157l-0.1-1c0-0.3-0.2-0.5-0.5-0.5h-0.8v1.5h-0.9V0.2h1.7c0.9,0,1.4,0.5,1.4,1.3
				c0,0.4-0.2,0.7-0.5,0.9c0.3,0.2,0.4,0.5,0.5,0.8L157.9,4.2z M155.6,0.9V2h0.8c0.4,0,0.6-0.3,0.6-0.6c0-0.3-0.2-0.6-0.6-0.6H155.6
				z"/>
			<path class="st0" d="M161.3,2.9h0.8c0,0.4,0.3,0.7,0.7,0.7c0.4,0,0.7-0.2,0.7-0.5c0-0.8-2.1-0.2-2.1-1.8c0-0.7,0.6-1.2,1.4-1.2
				c0.9,0,1.5,0.5,1.5,1.3h-0.8c0-0.3-0.3-0.5-0.7-0.5c-0.3,0-0.6,0.2-0.6,0.4c0,0.9,2.1,0.2,2.1,1.8c0,0.8-0.6,1.2-1.5,1.2
				C161.9,4.3,161.3,3.7,161.3,2.9z"/>
		</g>
		<rect x="149.8" y="8.7" class="st0" width="4.1" height="14.3"/>
		<g>
			<path class="st0" d="M151.8,35.8c-7.5,0-13.7-6.1-13.7-13.7c0-4.3,1.9-8.2,5.3-10.8l2.5,3.2c-2.4,1.8-3.7,4.6-3.7,7.6
				c0,5.3,4.3,9.6,9.6,9.6c5.3,0,9.6-4.3,9.6-9.6c0-3-1.4-5.8-3.8-7.6l2.5-3.2c3.4,2.6,5.4,6.6,5.4,10.9
				C165.5,29.7,159.4,35.8,151.8,35.8z"/>
		</g>
		<path class="st0" d="M131.8,14c-1.5-2-3.6-3.6-6-4.5l-3.3,3.3c0.4,0.1,0.8,0.2,1.1,0.3c4,1.2,6.8,5,6.8,9.2c0,5.3-4.3,9.6-9.6,9.6
			c-5.3,0-9.6-4.3-9.6-9.6c0-2.6,1-5,2.9-6.8L126.6,3l-2.9-2.9l-12.3,12.3c-2.6,2.6-4.1,6-4.1,9.7c0,7.5,6.1,13.7,13.7,13.7
			s13.7-6.1,13.7-13.7C134.6,19.2,133.6,16.3,131.8,14z"/>
	</g>
	<linearGradient id="SVGID_1_" gradientUnits="userSpaceOnUse" x1="22.6792" y1="13.829" x2="25.7032" y2="19.6021">
		<stop  offset="0" style="stop-color:#EC2603"/>
		<stop  offset="1" style="stop-color:#E61400"/>
	</linearGradient>
	<path class="st1" d="M23.5,19.8h4.2c-0.5-2.9-1.9-5.4-3.9-7.4l-2.9,2.9C22.1,16.6,23.1,18.1,23.5,19.8z"/>
	
		<linearGradient id="SVGID_00000068648540764009156790000015868793192080286376_" gradientUnits="userSpaceOnUse" x1="14.3292" y1="10.0414" x2="22.4587" y2="13.5367">
		<stop  offset="0" style="stop-color:#EE2C04"/>
		<stop  offset="1" style="stop-color:#EC2603"/>
	</linearGradient>
	<path style="fill:url(#SVGID_00000068648540764009156790000015868793192080286376_);" d="M14.2,12.6c2.6,0,5,1.1,6.8,2.8l2.9-2.9
		c-2.5-2.5-5.9-4-9.7-4c0,0-0.1,0-0.1,0L14.2,12.6C14.1,12.6,14.1,12.6,14.2,12.6z"/>
	
		<linearGradient id="SVGID_00000096744398299810530800000013282657016193441191_" gradientUnits="userSpaceOnUse" x1="13.9978" y1="9.9499" x2="5.9076" y2="13.6809">
		<stop  offset="0" style="stop-color:#EE2C04"/>
		<stop  offset="1" style="stop-color:#F33907"/>
	</linearGradient>
	<path style="fill:url(#SVGID_00000096744398299810530800000013282657016193441191_);" d="M14.2,12.6V8.5c-3.8,0-7.3,1.6-9.8,4.1
		l2.9,2.9C9.1,13.7,11.5,12.6,14.2,12.6z"/>
	
		<linearGradient id="SVGID_00000153666583087619022430000011887669071053532852_" gradientUnits="userSpaceOnUse" x1="5.4916" y1="13.878" x2="2.1141" y2="21.8504">
		<stop  offset="0" style="stop-color:#F33907"/>
		<stop  offset="1" style="stop-color:#F74509"/>
	</linearGradient>
	<path style="fill:url(#SVGID_00000153666583087619022430000011887669071053532852_);" d="M4.6,22.2c0-2.6,1.1-5,2.8-6.8l-2.9-2.9
		c-2.5,2.5-4,5.9-4,9.7c0,0,0,0.1,0,0.1L4.6,22.2C4.6,22.3,4.6,22.2,4.6,22.2z"/>
	
		<linearGradient id="SVGID_00000053524747743060325920000015853306589180150452_" gradientUnits="userSpaceOnUse" x1="2.0514" y1="22.4163" x2="5.586" y2="30.8207">
		<stop  offset="0" style="stop-color:#F74509"/>
		<stop  offset="1" style="stop-color:#FC530D"/>
	</linearGradient>
	<path style="fill:url(#SVGID_00000053524747743060325920000015853306589180150452_);" d="M4.6,22.2H0.5c0,3.8,1.6,7.3,4.1,9.8
		L7.4,29C5.7,27.3,4.6,24.9,4.6,22.2z"/>
	
		<linearGradient id="SVGID_00000100382598598566178040000008568974397045381023_" gradientUnits="userSpaceOnUse" x1="5.7868" y1="30.9669" x2="13.9555" y2="34.1872">
		<stop  offset="0" style="stop-color:#FC530D"/>
		<stop  offset="1" style="stop-color:#FF590E"/>
	</linearGradient>
	<path style="fill:url(#SVGID_00000100382598598566178040000008568974397045381023_);" d="M14.2,31.8c-2.6,0-5-1.1-6.8-2.8l-2.9,2.9
		c2.5,2.5,5.9,4,9.7,4c0,0,0.1,0,0.1,0L14.2,31.8C14.2,31.8,14.2,31.8,14.2,31.8z"/>
	<g>
		
			<linearGradient id="SVGID_00000031191391179382776120000001089650489578084266_" gradientUnits="userSpaceOnUse" x1="14.6644" y1="36.1974" x2="22.0967" y2="28.7097">
			<stop  offset="0.27" style="stop-color:#FF590E"/>
			<stop  offset="1" style="stop-color:#FF590E;stop-opacity:0"/>
		</linearGradient>
		<path style="fill:url(#SVGID_00000031191391179382776120000001089650489578084266_);" d="M21.8,28c-1.8,2.3-4.5,3.8-7.6,3.8v4.1
			c4.4,0,8.3-2.1,10.8-5.3L21.8,28z"/>
	</g>
	
		<linearGradient id="SVGID_00000097461071890823595070000001345148215686241180_" gradientUnits="userSpaceOnUse" x1="84.9841" y1="18.6727" x2="82.4237" y2="14.272">
		<stop  offset="0" style="stop-color:#0555FA"/>
		<stop  offset="1" style="stop-color:#0555FA"/>
	</linearGradient>
	<path style="fill:url(#SVGID_00000097461071890823595070000001345148215686241180_);" d="M83.1,19.8h4.2c-0.5-2.9-1.9-5.4-3.9-7.4
		l-2.9,2.9C81.7,16.6,82.7,18.1,83.1,19.8z"/>
	
		<linearGradient id="SVGID_00000008112919356297664220000014553470367800686008_" gradientUnits="userSpaceOnUse" x1="81.3977" y1="13.1732" x2="74.6233" y2="10.3728">
		<stop  offset="0" style="stop-color:#0555FA"/>
		<stop  offset="1" style="stop-color:#1976F2"/>
	</linearGradient>
	<path style="fill:url(#SVGID_00000008112919356297664220000014553470367800686008_);" d="M73.8,12.6c2.6,0,5,1.1,6.8,2.8l2.9-2.9
		c-2.5-2.5-5.9-4-9.7-4c0,0-0.1,0-0.1,0L73.8,12.6C73.7,12.6,73.7,12.6,73.8,12.6z"/>
	
		<linearGradient id="SVGID_00000044891634263624001670000018216523624892384161_" gradientUnits="userSpaceOnUse" x1="65.966" y1="13.2874" x2="72.7937" y2="10.3803">
		<stop  offset="0" style="stop-color:#2387EF"/>
		<stop  offset="1" style="stop-color:#1976F2"/>
	</linearGradient>
	<path style="fill:url(#SVGID_00000044891634263624001670000018216523624892384161_);" d="M73.8,12.6V8.5c-3.8,0-7.3,1.6-9.8,4.1
		l2.9,2.9C68.7,13.7,71.1,12.6,73.8,12.6z"/>
	
		<linearGradient id="SVGID_00000000189702346062159230000000472416703360277889_" gradientUnits="userSpaceOnUse" x1="61.9741" y1="21.2427" x2="64.7746" y2="14.5217">
		<stop  offset="0" style="stop-color:#2D99EB"/>
		<stop  offset="1" style="stop-color:#2387EF"/>
	</linearGradient>
	<path style="fill:url(#SVGID_00000000189702346062159230000000472416703360277889_);" d="M64.2,22.2c0-2.6,1.1-5,2.8-6.8l-2.9-2.9
		c-2.5,2.5-4,5.9-4,9.7c0,0,0,0.1,0,0.1L64.2,22.2C64.2,22.3,64.2,22.2,64.2,22.2z"/>
	
		<linearGradient id="SVGID_00000062905105506536204730000015515552051224214695_" gradientUnits="userSpaceOnUse" x1="61.9536" y1="23.1902" x2="64.8607" y2="29.9645">
		<stop  offset="0" style="stop-color:#2D99EB"/>
		<stop  offset="1" style="stop-color:#39ACE8"/>
	</linearGradient>
	<path style="fill:url(#SVGID_00000062905105506536204730000015515552051224214695_);" d="M64.2,22.2h-4.1c0,3.8,1.6,7.3,4.1,9.8
		L67,29C65.3,27.3,64.2,24.9,64.2,22.2z"/>
	
		<linearGradient id="SVGID_00000036936615548206139220000005274360969467032461_" gradientUnits="userSpaceOnUse" x1="65.4984" y1="30.9798" x2="72.9543" y2="34.0299">
		<stop  offset="0" style="stop-color:#39ACE8"/>
		<stop  offset="0.9728" style="stop-color:#40B8E5"/>
	</linearGradient>
	<path style="fill:url(#SVGID_00000036936615548206139220000005274360969467032461_);" d="M73.8,31.8c-2.6,0-5-1.1-6.8-2.8l-2.9,2.9
		c2.5,2.5,5.9,4,9.7,4c0,0,0.1,0,0.1,0L73.8,31.8C73.8,31.8,73.8,31.8,73.8,31.8z"/>
	<g>
		
			<linearGradient id="SVGID_00000124153462407095052000000003091857318867774083_" gradientUnits="userSpaceOnUse" x1="73.7548" y1="37.1717" x2="81.7889" y2="28.3177">
			<stop  offset="0.3249" style="stop-color:#40B8E5"/>
			<stop  offset="1" style="stop-color:#40B8E5;stop-opacity:0"/>
		</linearGradient>
		<path style="fill:url(#SVGID_00000124153462407095052000000003091857318867774083_);" d="M81.4,28c-1.8,2.3-4.5,3.8-7.6,3.8v4.1
			c4.4,0,8.3-2.1,10.8-5.3L81.4,28z"/>
	</g>
	
		<linearGradient id="SVGID_00000152965521518514296370000004533590022488807077_" gradientUnits="userSpaceOnUse" x1="93.3792" y1="14.4814" x2="93.3792" y2="26.7194">
		<stop  offset="0" style="stop-color:#008C5A"/>
		<stop  offset="1" style="stop-color:#55BE5A"/>
	</linearGradient>
	
		<rect x="91.3" y="14.4" style="fill:url(#SVGID_00000152965521518514296370000004533590022488807077_);" width="4.1" height="12.3"/>
	
		<linearGradient id="SVGID_00000176044197386207533960000006945435788630094261_" gradientUnits="userSpaceOnUse" x1="94.9098" y1="30.3315" x2="98.6459" y2="33.4121">
		<stop  offset="0" style="stop-color:#55BE5A"/>
		<stop  offset="1" style="stop-color:#55BE5A;stop-opacity:0"/>
	</linearGradient>
	<path style="fill:url(#SVGID_00000176044197386207533960000006945435788630094261_);" d="M95.4,26.7c0,2.9,1.4,4.2,3.7,5.8
		l-2.3,3.3c-3.5-2.3-5.5-4.9-5.5-9.2H95.4z"/>
	<g>
		
			<linearGradient id="SVGID_00000112597297668492482940000013050825775707463851_" gradientUnits="userSpaceOnUse" x1="35.8285" y1="14.5327" x2="45.2157" y2="14.5327">
			<stop  offset="5.960102e-03" style="stop-color:#FF0F64"/>
			<stop  offset="0.9949" style="stop-color:#FF2F78"/>
		</linearGradient>
		<path style="fill:url(#SVGID_00000112597297668492482940000013050825775707463851_);" d="M44.9,8.5c-3.6,0-6.8,1.4-9.1,3.7v8.3
			c0.6-3.3,3.5-7.9,9.1-7.9c0.1,0,0.2,0,0.3,0V8.5C45.1,8.5,45,8.5,44.9,8.5z"/>
	</g>
	
		<linearGradient id="SVGID_00000053508373343892092960000002288517280889781888_" gradientUnits="userSpaceOnUse" x1="50.6415" y1="13.1182" x2="50.6415" y2="20.7961">
		<stop  offset="6.888758e-03" style="stop-color:#FF2F78"/>
		<stop  offset="1" style="stop-color:#FF2F78;stop-opacity:0"/>
	</linearGradient>
	<path style="fill:url(#SVGID_00000053508373343892092960000002288517280889781888_);" d="M56.3,21.2h-4.1l0-1.3
		c0-4-3.2-7.2-7.1-7.2V8.5c6.2,0.1,11.2,5,11.2,11.3V21.2z"/>
	<rect x="31.7" y="9.6" class="st0" width="4.1" height="14.3"/>
	<rect x="91.3" y="0.1" class="st0" width="4.1" height="14.3"/>
	<rect x="52.2" y="21.2" class="st0" width="4.1" height="14.3"/>
	<rect x="13.4" y="19.8" class="st0" width="14.3" height="4.1"/>
	<rect x="73" y="19.8" class="st0" width="14.3" height="4.1"/>
</g>
</svg>
