<?xml version="1.0" encoding="utf-8"?>
<!-- Generator: Adobe Illustrator 26.1.0, SVG Export Plug-In . SVG Version: 6.00 Build 0)  -->
<svg version="1.1" id="Layer_1" xmlns="http://www.w3.org/2000/svg" xmlns:xlink="http://www.w3.org/1999/xlink" x="0px" y="0px"
	 width="166px" height="36px" viewBox="0 0 166 36" style="enable-background:new 0 0 166 36;" xml:space="preserve">
<style type="text/css">
	.st0{fill:#FFFFFF;}
	.st1{fill:url(#SVGID_1_);}
	.st2{fill:url(#SVGID_00000071519384225836609840000013360024083889471108_);}
	.st3{fill:url(#SVGID_00000182486746520744269350000011677848045520737417_);}
	.st4{fill:url(#SVGID_00000141450663657193399320000006252925970733674666_);}
	.st5{fill:url(#SVGID_00000149377515217631933570000011955759560095478922_);}
</style>
<g>
	<g>
		<g>
			<path class="st0" d="M136,4.2V2.5l-1.4-2.4h0.9l0.9,1.6l0.9-1.6h0.9l-1.4,2.4v1.7H136z"/>
			<path class="st0" d="M141.5,4.2V0.2h2.8v0.8h-1.9v0.9h1.5v0.8h-1.5v1h2v0.8H141.5z"/>
			<path class="st0" d="M150.6,4.2l-0.3-0.9h-1.5l-0.3,0.9h-0.9l1.6-4.1h0.8l1.6,4.1H150.6z M149,2.6h1l-0.5-1.3L149,2.6z"/>
			<path class="st0" d="M157.9,4.2H157l-0.1-1c0-0.3-0.2-0.5-0.5-0.5h-0.8v1.5h-0.9V0.2h1.7c0.9,0,1.4,0.5,1.4,1.3
				c0,0.4-0.2,0.7-0.5,0.9c0.3,0.2,0.4,0.5,0.5,0.8L157.9,4.2z M155.6,0.9V2h0.8c0.4,0,0.6-0.3,0.6-0.6c0-0.3-0.2-0.6-0.6-0.6H155.6
				z"/>
			<path class="st0" d="M161.3,2.9h0.8c0,0.4,0.3,0.7,0.7,0.7c0.4,0,0.7-0.2,0.7-0.5c0-0.8-2.1-0.2-2.1-1.8c0-0.7,0.6-1.2,1.4-1.2
				c0.9,0,1.5,0.5,1.5,1.3h-0.8c0-0.3-0.3-0.5-0.7-0.5c-0.3,0-0.6,0.2-0.6,0.4c0,0.9,2.1,0.2,2.1,1.8c0,0.8-0.6,1.2-1.5,1.2
				C161.9,4.3,161.3,3.7,161.3,2.9z"/>
		</g>
		<rect x="149.8" y="8.7" class="st0" width="4.1" height="14.3"/>
		<g>
			<path class="st0" d="M151.8,35.8c-7.5,0-13.7-6.1-13.7-13.7c0-4.3,1.9-8.2,5.3-10.8l2.5,3.2c-2.4,1.8-3.7,4.6-3.7,7.6
				c0,5.3,4.3,9.6,9.6,9.6c5.3,0,9.6-4.3,9.6-9.6c0-3-1.4-5.8-3.8-7.6l2.5-3.2c3.4,2.6,5.4,6.6,5.4,10.9
				C165.5,29.7,159.4,35.8,151.8,35.8z"/>
		</g>
		<path class="st0" d="M131.8,14c-1.5-2-3.6-3.6-6-4.5l-3.3,3.3c0.4,0.1,0.8,0.2,1.1,0.3c4,1.2,6.8,5,6.8,9.2c0,5.3-4.3,9.6-9.6,9.6
			c-5.3,0-9.6-4.3-9.6-9.6c0-2.6,1-5,2.9-6.8L126.6,3l-2.9-2.9l-12.3,12.3c-2.6,2.6-4.1,6-4.1,9.7c0,7.5,6.1,13.7,13.7,13.7
			s13.7-6.1,13.7-13.7C134.6,19.2,133.6,16.3,131.8,14z"/>
	</g>
	<g>
		<g>
			<linearGradient id="SVGID_1_" gradientUnits="userSpaceOnUse" x1="73.7548" y1="37.1717" x2="81.7889" y2="28.3177">
				<stop  offset="8.141706e-03" style="stop-color:#FFFFFF"/>
				<stop  offset="0.3" style="stop-color:#FFFFFF"/>
				<stop  offset="1" style="stop-color:#FFFFFF;stop-opacity:0"/>
			</linearGradient>
			<path class="st1" d="M81.4,28c-1.8,2.3-4.5,3.8-7.6,3.8v4.1c4.4,0,8.3-2.1,10.8-5.3L81.4,28z"/>
		</g>
		<g>
			
				<linearGradient id="SVGID_00000033340140413320754010000011858460310474190268_" gradientUnits="userSpaceOnUse" x1="14.1637" y1="37.1717" x2="22.1978" y2="28.3177">
				<stop  offset="6.878931e-03" style="stop-color:#FFFFFF"/>
				<stop  offset="0.3" style="stop-color:#FFFFFF"/>
				<stop  offset="1" style="stop-color:#FFFFFF;stop-opacity:0"/>
			</linearGradient>
			<path style="fill:url(#SVGID_00000033340140413320754010000011858460310474190268_);" d="M21.8,28c-1.8,2.3-4.5,3.8-7.6,3.8v4.1
				c4.4,0,8.3-2.1,10.8-5.3L21.8,28z"/>
		</g>
		
			<linearGradient id="SVGID_00000075160207029815587450000002803891991575364225_" gradientUnits="userSpaceOnUse" x1="93.1003" y1="28.4704" x2="98.1665" y2="33.5366">
			<stop  offset="1.026926e-02" style="stop-color:#FFFFFF"/>
			<stop  offset="1" style="stop-color:#FFFFFF;stop-opacity:0"/>
		</linearGradient>
		<path style="fill:url(#SVGID_00000075160207029815587450000002803891991575364225_);" d="M95.4,26.6c0,3,1.4,4.3,3.7,5.9l-2.3,3.3
			c-3.5-2.3-5.5-4.9-5.5-9.2H95.4z"/>
		
			<linearGradient id="SVGID_00000110430861473347080490000011939179118431997350_" gradientUnits="userSpaceOnUse" x1="50.3403" y1="13.1387" x2="51.2974" y2="21.9266">
			<stop  offset="8.628145e-03" style="stop-color:#FFFFFF"/>
			<stop  offset="1" style="stop-color:#FFFFFF;stop-opacity:0"/>
		</linearGradient>
		<path style="fill:url(#SVGID_00000110430861473347080490000011939179118431997350_);" d="M56.3,21.2h-4.1l0-1.3
			c0-4-3.2-7.2-7.1-7.2V8.5c6.2,0.1,11.2,5,11.2,11.3L56.3,21.2z"/>
		
			<linearGradient id="SVGID_00000042711951219332787030000003145683518224177796_" gradientUnits="userSpaceOnUse" x1="54.0089" y1="19.1054" x2="54.2167" y2="21.2219">
			<stop  offset="0" style="stop-color:#E94986"/>
			<stop  offset="1" style="stop-color:#E94986;stop-opacity:0"/>
		</linearGradient>
		<line style="fill:url(#SVGID_00000042711951219332787030000003145683518224177796_);" x1="56.3" y1="21.2" x2="52.2" y2="21.2"/>
		<rect x="52.2" y="21.2" class="st0" width="4.1" height="14.3"/>
		<g>
			<path class="st0" d="M73.8,8.5c-7.6,0-13.7,6.1-13.7,13.7s6.1,13.7,13.7,13.7c0,0,0.1,0,0.1,0v-4.1c0,0-0.1,0-0.1,0
				c-5.3,0-9.6-4.3-9.6-9.6s4.3-9.6,9.6-9.6c4.5,0,8.3,3.1,9.3,7.2l-10.1,0v4.1h14.3v-4.1C86.1,13.4,80.5,8.5,73.8,8.5z"/>
			<path class="st0" d="M14.2,8.5c-7.6,0-13.7,6.1-13.7,13.7s6.1,13.7,13.7,13.7c0,0,0.1,0,0.1,0v-4.1c0,0-0.1,0-0.1,0
				c-5.3,0-9.6-4.3-9.6-9.6s4.3-9.6,9.6-9.6c4.5,0,8.3,3.1,9.3,7.2l-10.1,0v4.1h14.3v-4.1C26.6,13.4,20.9,8.5,14.2,8.5z"/>
			<path class="st0" d="M95.4,26.6V0.1h-4.1v26.5c0,0,0,0.1,0,0.1L95.4,26.6C95.4,26.7,95.4,26.6,95.4,26.6z"/>
			<path class="st0" d="M44.9,8.5c-3.6,0-6.8,1.4-9.1,3.7V9.6h-4.1v14.3h4.1v-3.4c0.6-3.3,3.5-7.9,9.1-7.9c0.1,0,0.1,0,0.2,0V8.5
				C45,8.5,45,8.5,44.9,8.5z"/>
		</g>
	</g>
</g>
</svg>
