<?xml version="1.0" encoding="utf-8"?>
<!-- Generator: Adobe Illustrator 24.0.2, SVG Export Plug-In . SVG Version: 6.00 Build 0)  -->
<svg version="1.1" id="Livello_1" xmlns="http://www.w3.org/2000/svg" xmlns:xlink="http://www.w3.org/1999/xlink" x="0px" y="0px"
	 width="48px" height="48px" viewBox="0 0 48 48" style="enable-background:new 0 0 48 48;" xml:space="preserve">
<style type="text/css">
	.st0{fill:#0152E8;}
</style>
<g id="surface1">
	<path class="st0" d="M17.88,17.1l-1.68-2.07c2.07-1.68,4.67-2.6,7.33-2.61l0.01,2.66C21.46,15.09,19.5,15.79,17.88,17.1z"/>
	<path class="st0" d="M23.57,36.09c-5.54,0-10.38-3.95-11.51-9.4l2.61-0.54c0.88,4.21,4.62,7.28,8.9,7.28c5.02,0,9.1-4.11,9.1-9.17
		c0-3.45-1.89-6.57-4.93-8.16l1.23-2.36c3.93,2.04,6.36,6.08,6.36,10.52C35.33,30.79,30.05,36.09,23.57,36.09z"/>
	<path class="st0" d="M11.68,27.97c-4.39,0-7.95-3.59-7.95-8s3.56-8,7.95-8c4.38,0,7.95,3.59,7.95,8S16.07,27.97,11.68,27.97z
		 M11.68,14.64c-2.91,0-5.29,2.39-5.29,5.33s2.37,5.34,5.29,5.34s5.28-2.39,5.28-5.34S14.6,14.64,11.68,14.64z"/>
	<path class="st0" d="M9.66,43.73c-2.85,0-5.17-2.34-5.17-5.2c0-2.87,2.32-5.2,5.17-5.2s5.17,2.34,5.17,5.2
		C14.83,41.4,12.51,43.73,9.66,43.73z M9.66,36c-1.38,0-2.5,1.14-2.5,2.54c0,1.39,1.12,2.53,2.5,2.53s2.5-1.14,2.5-2.53
		C12.16,37.14,11.04,36,9.66,36z"/>
	<path class="st0" d="M39.1,40.98c-2.85,0-5.17-2.33-5.17-5.2s2.32-5.2,5.17-5.2s5.17,2.33,5.17,5.2S41.95,40.98,39.1,40.98z
		 M39.1,33.25c-1.38,0-2.5,1.14-2.5,2.54c0,1.39,1.12,2.53,2.5,2.53s2.5-1.14,2.5-2.53C41.6,34.39,40.48,33.25,39.1,33.25z"/>
	<path class="st0" d="M38.45,14.67c-2.85,0-5.17-2.34-5.17-5.2s2.32-5.2,5.17-5.2s5.17,2.34,5.17,5.2
		C43.62,12.33,41.3,14.67,38.45,14.67z M38.45,6.93c-1.38,0-2.5,1.14-2.5,2.53c0,1.4,1.12,2.54,2.5,2.54s2.5-1.14,2.5-2.54
		C40.95,8.07,39.83,6.93,38.45,6.93z"/>
</g>
</svg>
