<?xml version="1.0" encoding="utf-8"?>
<!-- Generator: Adobe Illustrator 24.0.2, SVG Export Plug-In . SVG Version: 6.00 Build 0)  -->
<svg version="1.1" id="Livello_1" xmlns="http://www.w3.org/2000/svg" xmlns:xlink="http://www.w3.org/1999/xlink" x="0px" y="0px"
	 width="48px" height="48px" viewBox="0 0 48 48" style="enable-background:new 0 0 48 48;" xml:space="preserve">
<style type="text/css">
	.st0{fill:#0152E8;}
</style>
<g id="surface1">
	<path class="st0" d="M24.09,42.13c-0.19,0-0.38-0.04-0.55-0.12l-0.55-0.25c-3.59-1.64-7.36-2.46-11.22-2.46H4.54
		c-0.74,0-1.34-0.6-1.34-1.34v-6.01h2.67v4.68h5.9c3.76,0,7.45,0.71,10.98,2.13V10.88c-3.52-1.56-7.22-2.35-11.01-2.35H5.87v18.6
		H3.2V7.2c0-0.73,0.6-1.33,1.34-1.33h7.21c4.46,0,8.8,1,12.91,2.96c0.46,0.22,0.76,0.69,0.76,1.2V40.8c0,0.45-0.23,0.88-0.61,1.12
		C24.59,42.06,24.34,42.13,24.09,42.13z"/>
	<path class="st0" d="M23.91,42.13c-0.23,0-0.46-0.06-0.68-0.18c-0.41-0.24-0.66-0.68-0.66-1.15V10.03c0-0.5,0.27-0.95,0.71-1.18
		l0.34-0.18c3.47-1.84,7.34-2.8,11.18-2.8h8.65c0.74,0,1.34,0.6,1.34,1.33v30.77c0,0.74-0.6,1.34-1.34,1.34h-9.38
		c-3.11,0-6.23,0.82-9.03,2.39l-0.49,0.27C24.36,42.08,24.14,42.13,23.91,42.13z M25.25,10.84V38.6c2.8-1.29,5.82-1.96,8.84-1.96
		h8.05V8.54h-7.32C31.54,8.54,28.25,9.33,25.25,10.84z"/>
	<path class="st0" d="M27.78,16.63l-0.96-2.48c2.75-1.05,5.61-1.59,8.5-1.59h4.75v2.66h-4.75C32.76,15.22,30.22,15.7,27.78,16.63z"
		/>
	<path class="st0" d="M27.78,22.55l-0.96-2.49c2.75-1.05,5.61-1.59,8.5-1.59h4.75v2.66h-4.75C32.76,21.14,30.22,21.61,27.78,22.55z"
		/>
</g>
</svg>
