<?xml version="1.0" encoding="utf-8"?>
<!-- Generator: Adobe Illustrator 24.0.2, SVG Export Plug-In . SVG Version: 6.00 Build 0)  -->
<svg version="1.1" id="Livello_1" xmlns="http://www.w3.org/2000/svg" xmlns:xlink="http://www.w3.org/1999/xlink" x="0px" y="0px"
	 width="48px" height="48px" viewBox="0 0 48 48" style="enable-background:new 0 0 48 48;" xml:space="preserve">
<style type="text/css">
	.st0{fill:#0152E8;}
</style>
<g id="surface1">
	<path class="st0" d="M21.57,45.07c-10.28,0-18.63-8.44-18.63-18.81S11.29,7.45,21.57,7.45c2.35,0,4.64,0.44,6.82,1.3l-0.98,2.48
		c-1.86-0.74-3.82-1.11-5.83-1.11c-8.8,0-15.96,7.23-15.96,16.14S12.76,42.4,21.57,42.4c8.8,0,15.96-7.24,15.96-16.14
		c0-2.12-0.4-4.17-1.18-6.11c-0.8-2-1.98-3.78-3.5-5.31l1.89-1.88c1.77,1.79,3.14,3.87,4.07,6.19c0.91,2.25,1.38,4.64,1.38,7.11
		C40.2,36.63,31.84,45.07,21.57,45.07z"/>
	<path class="st0" d="M21.57,36.43c-5.56,0-10.08-4.56-10.08-10.17s4.52-10.17,10.08-10.17s10.09,4.56,10.09,10.17
		C31.65,31.87,27.12,36.43,21.57,36.43z M21.57,18.75c-4.09,0-7.41,3.37-7.41,7.5c0,4.14,3.33,7.5,7.41,7.5
		c4.09,0,7.42-3.36,7.42-7.5C28.98,22.12,25.66,18.75,21.57,18.75z"/>
	<path class="st0" d="M24.14,26.26c0-1.43-1.15-2.6-2.57-2.6S19,24.82,19,26.26s1.15,2.6,2.57,2.6S24.14,27.69,24.14,26.26z"/>
	<path class="st0" d="M22.52,27.2l-1.9-1.88L37.78,7.98L36.9,4.61l2.58-0.68l1.08,4.12c0.12,0.45-0.01,0.94-0.34,1.27L22.52,27.2z"
		/>
	<path class="st0" d="M39.2,9.71l0.14-2.66l4.47,0.23l-0.14,2.66L39.2,9.71z"/>
</g>
</svg>
